<!-- <?xml version="1.0" encoding="utf-8"?> -->
<svg version="1.1" xmlns:xlink="http://www.w3.org/1999/xlink" width="69px" height="80px" xmlns="http://www.w3.org/2000/svg">
  <g transform="matrix(1 0 0 1 -820 -995 )">
    <path d="M 57 69  L 57 14.9145535714285  L 41.0243234536083 0  L 0 0  L 0 69  L 57 69  Z M 51 64  L 6 64  L 6 6  L 36 6  L 36 20  L 51 20  L 51 64  Z M 68 19.9293750000001  L 62 19.9293750000001  L 62 74  L 11.1391430412371 74  L 11.1391430412371 80  L 68 80  L 68 19.9293750000001  Z M 11.4021610824742 33  L 11.4021610824742 28  L 45.7998170103093 28  L 45.7998170103093 33  L 11.4021610824742 33  Z M 11.4021610824742 45  L 11.4021610824742 40  L 45.7998170103093 40  L 45.7998170103093 45  L 11.4021610824742 45  Z M 11.4021610824742 57  L 11.4021610824742 52  L 45.7998170103093 52  L 45.7998170103093 57  L 11.4021610824742 57  Z " fill-rule="nonzero" fill="#cccccc" stroke="none" transform="matrix(1 0 0 1 820 995 )" />
  </g>
</svg>